<svg width="71" height="48" viewBox="0 0 71 48" fill="none" xmlns="http://www.w3.org/2000/svg">
<path d="M0.0126113 12.3188C7.69499e-07 5.68287 4.88028 0.522993 11.6143 0.0309754C17.8818 -0.423195 23.67 4.16897 24.6284 10.3886C24.7545 11.2212 24.8302 12.0665 24.8932 12.9117C25.3472 18.9674 29.7105 23.0044 35.7005 22.9161C41.3248 22.8404 45.625 18.4123 45.8646 12.445C46.142 5.53148 50.7575 0.598689 57.4537 0.043592C64.0742 -0.511505 70.0768 4.49698 70.783 11.1455C71.4766 17.7436 66.8359 23.8244 60.3415 24.7706C58.7399 25.0103 57.088 24.9851 55.5369 25.3888C50.7449 26.663 48.084 30.4478 47.7688 36.1501C47.2391 45.7634 36.621 51.2008 28.5755 45.9652C24.805 43.5052 23.0143 39.897 22.7747 35.4689C22.4342 29.224 18.7393 25.4771 12.4088 24.9977C4.71635 24.4048 0.0252211 19.5981 0 12.3062L0.0126113 12.3188ZM12.3962 2.03689C6.67098 2.02428 2.00508 6.5029 1.89158 12.1169C1.77809 18.0464 6.05306 22.6638 11.8791 22.9287C19.7103 23.282 24.2753 27.8615 24.8806 35.9609C25.322 41.8272 29.824 46.104 35.4735 46.0283C41.0726 45.94 45.5745 41.4614 45.852 35.6833C46.2177 28.0003 51.0601 23.2567 58.8408 22.9287C65.7892 22.6512 70.5182 15.6998 68.2357 9.127C66.5585 4.29513 61.9556 1.45657 56.8231 2.08736C52.0564 2.66769 48.2984 6.89399 47.7688 12.0539C47.567 14.0219 47.3274 16.0783 46.5455 17.8572C44.2378 23.118 38.5252 25.8304 32.7622 24.7202C27.0244 23.61 23.0647 18.652 22.7494 12.2179C22.472 6.31366 18.1214 2.04951 12.371 2.03689H12.3962Z" fill="#557A62"/>
</svg>
